<?xml version="1.0" standalone="no"?>
<svg xmlns="http://www.w3.org/2000/svg" version="1.1" width="189" height="189">
	<!-- Created with https://api.qrserver.com (QR Code API, see goQR.me/api for information) -->
	<title>QR Code</title>
	<desc>PL_84207</desc>
	<rect style="fill:rgb(255, 255, 255);fill-opacity:1" x="0" y="0" width="189" height="189" />
	<g id="elements">
		<path style="fill:rgb(0, 0, 0)" d="M 0,0 l 9,0 0,9 -9,0 z M 9,0 l 9,0 0,9 -9,0 z M 18,0 l 9,0 0,9 -9,0 z M 27,0 l 9,0 0,9 -9,0 z M 36,0 l 9,0 0,9 -9,0 z M 45,0 l 9,0 0,9 -9,0 z M 54,0 l 9,0 0,9 -9,0 z M 90,0 l 9,0 0,9 -9,0 z M 99,0 l 9,0 0,9 -9,0 z M 108,0 l 9,0 0,9 -9,0 z M 126,0 l 9,0 0,9 -9,0 z M 135,0 l 9,0 0,9 -9,0 z M 144,0 l 9,0 0,9 -9,0 z M 153,0 l 9,0 0,9 -9,0 z M 162,0 l 9,0 0,9 -9,0 z M 171,0 l 9,0 0,9 -9,0 z M 180,0 l 9,0 0,9 -9,0 z M 0,9 l 9,0 0,9 -9,0 z M 54,9 l 9,0 0,9 -9,0 z M 72,9 l 9,0 0,9 -9,0 z M 81,9 l 9,0 0,9 -9,0 z M 90,9 l 9,0 0,9 -9,0 z M 108,9 l 9,0 0,9 -9,0 z M 126,9 l 9,0 0,9 -9,0 z M 180,9 l 9,0 0,9 -9,0 z M 0,18 l 9,0 0,9 -9,0 z M 18,18 l 9,0 0,9 -9,0 z M 27,18 l 9,0 0,9 -9,0 z M 36,18 l 9,0 0,9 -9,0 z M 54,18 l 9,0 0,9 -9,0 z M 90,18 l 9,0 0,9 -9,0 z M 99,18 l 9,0 0,9 -9,0 z M 108,18 l 9,0 0,9 -9,0 z M 126,18 l 9,0 0,9 -9,0 z M 144,18 l 9,0 0,9 -9,0 z M 153,18 l 9,0 0,9 -9,0 z M 162,18 l 9,0 0,9 -9,0 z M 180,18 l 9,0 0,9 -9,0 z M 0,27 l 9,0 0,9 -9,0 z M 18,27 l 9,0 0,9 -9,0 z M 27,27 l 9,0 0,9 -9,0 z M 36,27 l 9,0 0,9 -9,0 z M 54,27 l 9,0 0,9 -9,0 z M 72,27 l 9,0 0,9 -9,0 z M 81,27 l 9,0 0,9 -9,0 z M 108,27 l 9,0 0,9 -9,0 z M 126,27 l 9,0 0,9 -9,0 z M 144,27 l 9,0 0,9 -9,0 z M 153,27 l 9,0 0,9 -9,0 z M 162,27 l 9,0 0,9 -9,0 z M 180,27 l 9,0 0,9 -9,0 z M 0,36 l 9,0 0,9 -9,0 z M 18,36 l 9,0 0,9 -9,0 z M 27,36 l 9,0 0,9 -9,0 z M 36,36 l 9,0 0,9 -9,0 z M 54,36 l 9,0 0,9 -9,0 z M 81,36 l 9,0 0,9 -9,0 z M 108,36 l 9,0 0,9 -9,0 z M 126,36 l 9,0 0,9 -9,0 z M 144,36 l 9,0 0,9 -9,0 z M 153,36 l 9,0 0,9 -9,0 z M 162,36 l 9,0 0,9 -9,0 z M 180,36 l 9,0 0,9 -9,0 z M 0,45 l 9,0 0,9 -9,0 z M 54,45 l 9,0 0,9 -9,0 z M 72,45 l 9,0 0,9 -9,0 z M 99,45 l 9,0 0,9 -9,0 z M 126,45 l 9,0 0,9 -9,0 z M 180,45 l 9,0 0,9 -9,0 z M 0,54 l 9,0 0,9 -9,0 z M 9,54 l 9,0 0,9 -9,0 z M 18,54 l 9,0 0,9 -9,0 z M 27,54 l 9,0 0,9 -9,0 z M 36,54 l 9,0 0,9 -9,0 z M 45,54 l 9,0 0,9 -9,0 z M 54,54 l 9,0 0,9 -9,0 z M 72,54 l 9,0 0,9 -9,0 z M 90,54 l 9,0 0,9 -9,0 z M 108,54 l 9,0 0,9 -9,0 z M 126,54 l 9,0 0,9 -9,0 z M 135,54 l 9,0 0,9 -9,0 z M 144,54 l 9,0 0,9 -9,0 z M 153,54 l 9,0 0,9 -9,0 z M 162,54 l 9,0 0,9 -9,0 z M 171,54 l 9,0 0,9 -9,0 z M 180,54 l 9,0 0,9 -9,0 z M 81,63 l 9,0 0,9 -9,0 z M 0,72 l 9,0 0,9 -9,0 z M 9,72 l 9,0 0,9 -9,0 z M 18,72 l 9,0 0,9 -9,0 z M 27,72 l 9,0 0,9 -9,0 z M 36,72 l 9,0 0,9 -9,0 z M 54,72 l 9,0 0,9 -9,0 z M 63,72 l 9,0 0,9 -9,0 z M 72,72 l 9,0 0,9 -9,0 z M 99,72 l 9,0 0,9 -9,0 z M 117,72 l 9,0 0,9 -9,0 z M 135,72 l 9,0 0,9 -9,0 z M 153,72 l 9,0 0,9 -9,0 z M 171,72 l 9,0 0,9 -9,0 z M 9,81 l 9,0 0,9 -9,0 z M 18,81 l 9,0 0,9 -9,0 z M 45,81 l 9,0 0,9 -9,0 z M 81,81 l 9,0 0,9 -9,0 z M 99,81 l 9,0 0,9 -9,0 z M 108,81 l 9,0 0,9 -9,0 z M 117,81 l 9,0 0,9 -9,0 z M 126,81 l 9,0 0,9 -9,0 z M 135,81 l 9,0 0,9 -9,0 z M 153,81 l 9,0 0,9 -9,0 z M 27,90 l 9,0 0,9 -9,0 z M 36,90 l 9,0 0,9 -9,0 z M 54,90 l 9,0 0,9 -9,0 z M 63,90 l 9,0 0,9 -9,0 z M 108,90 l 9,0 0,9 -9,0 z M 126,90 l 9,0 0,9 -9,0 z M 135,90 l 9,0 0,9 -9,0 z M 162,90 l 9,0 0,9 -9,0 z M 171,90 l 9,0 0,9 -9,0 z M 0,99 l 9,0 0,9 -9,0 z M 63,99 l 9,0 0,9 -9,0 z M 72,99 l 9,0 0,9 -9,0 z M 81,99 l 9,0 0,9 -9,0 z M 99,99 l 9,0 0,9 -9,0 z M 108,99 l 9,0 0,9 -9,0 z M 117,99 l 9,0 0,9 -9,0 z M 126,99 l 9,0 0,9 -9,0 z M 135,99 l 9,0 0,9 -9,0 z M 144,99 l 9,0 0,9 -9,0 z M 153,99 l 9,0 0,9 -9,0 z M 162,99 l 9,0 0,9 -9,0 z M 0,108 l 9,0 0,9 -9,0 z M 18,108 l 9,0 0,9 -9,0 z M 54,108 l 9,0 0,9 -9,0 z M 81,108 l 9,0 0,9 -9,0 z M 90,108 l 9,0 0,9 -9,0 z M 108,108 l 9,0 0,9 -9,0 z M 144,108 l 9,0 0,9 -9,0 z M 153,108 l 9,0 0,9 -9,0 z M 162,108 l 9,0 0,9 -9,0 z M 72,117 l 9,0 0,9 -9,0 z M 108,117 l 9,0 0,9 -9,0 z M 135,117 l 9,0 0,9 -9,0 z M 153,117 l 9,0 0,9 -9,0 z M 171,117 l 9,0 0,9 -9,0 z M 0,126 l 9,0 0,9 -9,0 z M 9,126 l 9,0 0,9 -9,0 z M 18,126 l 9,0 0,9 -9,0 z M 27,126 l 9,0 0,9 -9,0 z M 36,126 l 9,0 0,9 -9,0 z M 45,126 l 9,0 0,9 -9,0 z M 54,126 l 9,0 0,9 -9,0 z M 72,126 l 9,0 0,9 -9,0 z M 99,126 l 9,0 0,9 -9,0 z M 117,126 l 9,0 0,9 -9,0 z M 135,126 l 9,0 0,9 -9,0 z M 153,126 l 9,0 0,9 -9,0 z M 171,126 l 9,0 0,9 -9,0 z M 0,135 l 9,0 0,9 -9,0 z M 54,135 l 9,0 0,9 -9,0 z M 135,135 l 9,0 0,9 -9,0 z M 144,135 l 9,0 0,9 -9,0 z M 162,135 l 9,0 0,9 -9,0 z M 171,135 l 9,0 0,9 -9,0 z M 180,135 l 9,0 0,9 -9,0 z M 0,144 l 9,0 0,9 -9,0 z M 18,144 l 9,0 0,9 -9,0 z M 27,144 l 9,0 0,9 -9,0 z M 36,144 l 9,0 0,9 -9,0 z M 54,144 l 9,0 0,9 -9,0 z M 72,144 l 9,0 0,9 -9,0 z M 99,144 l 9,0 0,9 -9,0 z M 117,144 l 9,0 0,9 -9,0 z M 135,144 l 9,0 0,9 -9,0 z M 144,144 l 9,0 0,9 -9,0 z M 153,144 l 9,0 0,9 -9,0 z M 162,144 l 9,0 0,9 -9,0 z M 0,153 l 9,0 0,9 -9,0 z M 18,153 l 9,0 0,9 -9,0 z M 27,153 l 9,0 0,9 -9,0 z M 36,153 l 9,0 0,9 -9,0 z M 54,153 l 9,0 0,9 -9,0 z M 72,153 l 9,0 0,9 -9,0 z M 99,153 l 9,0 0,9 -9,0 z M 108,153 l 9,0 0,9 -9,0 z M 117,153 l 9,0 0,9 -9,0 z M 126,153 l 9,0 0,9 -9,0 z M 135,153 l 9,0 0,9 -9,0 z M 162,153 l 9,0 0,9 -9,0 z M 0,162 l 9,0 0,9 -9,0 z M 18,162 l 9,0 0,9 -9,0 z M 27,162 l 9,0 0,9 -9,0 z M 36,162 l 9,0 0,9 -9,0 z M 54,162 l 9,0 0,9 -9,0 z M 72,162 l 9,0 0,9 -9,0 z M 108,162 l 9,0 0,9 -9,0 z M 126,162 l 9,0 0,9 -9,0 z M 162,162 l 9,0 0,9 -9,0 z M 0,171 l 9,0 0,9 -9,0 z M 54,171 l 9,0 0,9 -9,0 z M 72,171 l 9,0 0,9 -9,0 z M 90,171 l 9,0 0,9 -9,0 z M 99,171 l 9,0 0,9 -9,0 z M 108,171 l 9,0 0,9 -9,0 z M 117,171 l 9,0 0,9 -9,0 z M 126,171 l 9,0 0,9 -9,0 z M 144,171 l 9,0 0,9 -9,0 z M 162,171 l 9,0 0,9 -9,0 z M 0,180 l 9,0 0,9 -9,0 z M 9,180 l 9,0 0,9 -9,0 z M 18,180 l 9,0 0,9 -9,0 z M 27,180 l 9,0 0,9 -9,0 z M 36,180 l 9,0 0,9 -9,0 z M 45,180 l 9,0 0,9 -9,0 z M 54,180 l 9,0 0,9 -9,0 z M 72,180 l 9,0 0,9 -9,0 z M 108,180 l 9,0 0,9 -9,0 z M 153,180 l 9,0 0,9 -9,0 z M 162,180 l 9,0 0,9 -9,0 z M 171,180 l 9,0 0,9 -9,0 z " />
	</g>
</svg>
